<svg xmlns="http://www.w3.org/2000/svg" viewBox="0 0 900 450" width="900" height="450" font-family="system-ui, sans-serif">
  <!-- Background -->
  <rect width="900" height="450" fill="#ffffff"/>

  <!-- Title -->
  <text x="450" y="30" text-anchor="middle" font-size="18" font-weight="bold" fill="#212529">How a Study Gets Into PACS</text>

  <!-- Arrow markers -->
  <defs>
    <marker id="arrowhead" markerWidth="8" markerHeight="6" refX="7" refY="3" orient="auto">
      <polygon points="0 0, 8 3, 0 6" fill="#6c757d"/>
    </marker>
    <marker id="arrowhead-blue" markerWidth="8" markerHeight="6" refX="7" refY="3" orient="auto">
      <polygon points="0 0, 8 3, 0 6" fill="#339af0"/>
    </marker>
  </defs>

  <!-- ===== RIS / HIS (top center) ===== -->
  <rect x="330" y="50" width="160" height="55" rx="6" fill="#f8f9fa" stroke="#dee2e6" stroke-width="1.5"/>
  <text x="410" y="73" text-anchor="middle" font-size="14" font-weight="bold" fill="#212529">RIS / HIS</text>
  <text x="410" y="90" text-anchor="middle" font-size="11" fill="#495057">Order Management</text>

  <!-- Worklist Query: RIS/HIS left → bend down → Modality top -->
  <line x1="330" y1="78" x2="175" y2="78" stroke="#6c757d" stroke-width="1.5"/>
  <line x1="175" y1="78" x2="175" y2="155" stroke="#6c757d" stroke-width="1.5" marker-end="url(#arrowhead)"/>
  <!-- Dashed return line (bidirectional hint) -->
  <line x1="155" y1="90" x2="155" y2="153" stroke="#6c757d" stroke-width="1" stroke-dasharray="4,3"/>

  <!-- Worklist Query label -->
  <rect x="200" y="65" width="115" height="24" rx="4" fill="#e7f5ff" stroke="#339af0" stroke-width="1.5"/>
  <text x="257" y="82" text-anchor="middle" font-size="11" font-weight="bold" fill="#339af0">Worklist Query</text>

  <!-- ===== MAIN FLOW ROW (y=155, h=80, center_y=195) ===== -->

  <!-- Modality box -->
  <rect x="40" y="155" width="160" height="80" rx="6" fill="#f8f9fa" stroke="#dee2e6" stroke-width="1.5"/>
  <text x="120" y="183" text-anchor="middle" font-size="14" font-weight="bold" fill="#212529">Modality</text>
  <text x="120" y="200" text-anchor="middle" font-size="12" fill="#495057">CT / MRI / X-ray</text>
  <text x="120" y="216" text-anchor="middle" font-size="11" fill="#495057">(DICOM SCU)</text>

  <!-- Arrow: Modality → PACS Server -->
  <line x1="200" y1="195" x2="340" y2="195" stroke="#6c757d" stroke-width="1.5" marker-end="url(#arrowhead)"/>

  <!-- DICOM C-STORE label (on arrow) -->
  <rect x="215" y="178" width="110" height="26" rx="4" fill="#e7f5ff" stroke="#339af0" stroke-width="1.5"/>
  <text x="270" y="196" text-anchor="middle" font-size="12" font-weight="bold" fill="#339af0">DICOM C-STORE</text>

  <!-- PACS Server box (blue accent, key component) -->
  <rect x="340" y="155" width="170" height="80" rx="6" fill="#e7f5ff" stroke="#339af0" stroke-width="2"/>
  <text x="425" y="183" text-anchor="middle" font-size="14" font-weight="bold" fill="#339af0">PACS Server</text>
  <text x="425" y="200" text-anchor="middle" font-size="12" fill="#339af0">(SCP)</text>
  <text x="425" y="216" text-anchor="middle" font-size="11" fill="#339af0">Receives &amp; Routes</text>

  <!-- Arrow: PACS Server → Archive -->
  <line x1="510" y1="195" x2="620" y2="195" stroke="#6c757d" stroke-width="1.5" marker-end="url(#arrowhead)"/>
  <text x="565" y="186" text-anchor="middle" font-size="11" fill="#6c757d">Store</text>

  <!-- Archive box -->
  <rect x="620" y="155" width="160" height="80" rx="6" fill="#f8f9fa" stroke="#dee2e6" stroke-width="1.5"/>
  <text x="700" y="183" text-anchor="middle" font-size="14" font-weight="bold" fill="#212529">Archive</text>
  <text x="700" y="200" text-anchor="middle" font-size="12" fill="#495057">Long-term</text>
  <text x="700" y="216" text-anchor="middle" font-size="11" fill="#495057">Storage</text>

  <!-- ===== PACS Server → Reading Worklist (downward) ===== -->
  <line x1="425" y1="235" x2="425" y2="310" stroke="#6c757d" stroke-width="1.5" marker-end="url(#arrowhead)"/>
  <text x="440" y="278" font-size="11" fill="#6c757d">Route</text>

  <!-- Reading Worklist box -->
  <rect x="340" y="310" width="170" height="60" rx="6" fill="#f8f9fa" stroke="#dee2e6" stroke-width="1.5"/>
  <text x="425" y="338" text-anchor="middle" font-size="14" font-weight="bold" fill="#212529">Reading Worklist</text>
  <text x="425" y="356" text-anchor="middle" font-size="11" fill="#495057">Radiologist Queue</text>

  <!-- ===== Legend ===== -->
  <rect x="740" y="50" width="130" height="85" rx="4" fill="#f8f9fa" stroke="#dee2e6" stroke-width="1"/>
  <text x="805" y="70" text-anchor="middle" font-size="11" font-weight="bold" fill="#212529">Legend</text>
  <rect x="752" y="78" width="16" height="12" rx="2" fill="#e7f5ff" stroke="#339af0" stroke-width="1.5"/>
  <text x="774" y="89" font-size="10" fill="#212529">Key component</text>
  <rect x="752" y="98" width="16" height="12" rx="2" fill="#f8f9fa" stroke="#dee2e6" stroke-width="1.5"/>
  <text x="774" y="109" font-size="10" fill="#212529">Standard node</text>
  <line x1="752" y1="123" x2="768" y2="123" stroke="#6c757d" stroke-width="1.5" marker-end="url(#arrowhead)"/>
  <text x="774" y="127" font-size="10" fill="#212529">Data flow</text>
</svg>
