<svg xmlns="http://www.w3.org/2000/svg" viewBox="0 0 950 470" width="950" height="470" font-family="system-ui, sans-serif">
  <rect width="950" height="470" fill="#ffffff"/>

  <text x="475" y="28" text-anchor="middle" font-size="18" font-weight="bold" fill="#212529">Study Routing Decision Flow</text>

  <defs>
    <marker id="arr" markerWidth="8" markerHeight="6" refX="7" refY="3" orient="auto">
      <polygon points="0 0, 8 3, 0 6" fill="#6c757d"/>
    </marker>
  </defs>

  <!-- Study arrives box -->
  <rect x="345" y="48" width="260" height="48" rx="6" fill="#f8f9fa" stroke="#dee2e6" stroke-width="1.5"/>
  <text x="475" y="69" text-anchor="middle" font-size="13" font-weight="bold" fill="#212529">Study Arrives at PACS</text>
  <text x="475" y="87" text-anchor="middle" font-size="11" fill="#495057">New study received via C-STORE</text>

  <!-- Arrow down to diamond -->
  <line x1="475" y1="96" x2="475" y2="122" stroke="#6c757d" stroke-width="1.5" marker-end="url(#arr)"/>

  <!-- Modality type? diamond -->
  <polygon points="475,122 560,157 475,192 390,157" fill="#fff9db" stroke="#fcc419" stroke-width="1.5"/>
  <text x="475" y="153" text-anchor="middle" font-size="12" font-weight="bold" fill="#212529">Modality</text>
  <text x="475" y="169" text-anchor="middle" font-size="12" font-weight="bold" fill="#212529">type?</text>

  <!-- Branch labels -->
  <text x="345" y="150" text-anchor="middle" font-size="11" fill="#6c757d">CT</text>
  <text x="530" y="205" text-anchor="middle" font-size="11" fill="#6c757d">MR</text>
  <text x="610" y="150" text-anchor="middle" font-size="11" fill="#6c757d">Other</text>

  <!-- ===== CT branch (left) ===== -->
  <line x1="390" y1="157" x2="310" y2="157" stroke="#6c757d" stroke-width="1.5"/>
  <line x1="310" y1="157" x2="310" y2="198" stroke="#6c757d" stroke-width="1.5" marker-end="url(#arr)"/>

  <!-- Body part? diamond -->
  <polygon points="310,198 385,233 310,268 235,233" fill="#fff9db" stroke="#fcc419" stroke-width="1.5"/>
  <text x="310" y="229" text-anchor="middle" font-size="12" font-weight="bold" fill="#212529">Body</text>
  <text x="310" y="245" text-anchor="middle" font-size="12" font-weight="bold" fill="#212529">part?</text>

  <!-- Body part labels -->
  <text x="195" y="228" text-anchor="middle" font-size="11" fill="#6c757d">Head</text>
  <text x="425" y="228" text-anchor="middle" font-size="11" fill="#6c757d">ED</text>
  <text x="310" y="286" text-anchor="middle" font-size="11" fill="#6c757d">Other CT</text>

  <!-- CT Head → Neuro Queue -->
  <line x1="235" y1="233" x2="110" y2="233" stroke="#6c757d" stroke-width="1.5"/>
  <line x1="110" y1="233" x2="110" y2="340" stroke="#6c757d" stroke-width="1.5" marker-end="url(#arr)"/>

  <rect x="40" y="340" width="140" height="50" rx="6" fill="#e7f5ff" stroke="#339af0" stroke-width="2"/>
  <text x="110" y="362" text-anchor="middle" font-size="12" font-weight="bold" fill="#339af0">Neuro Queue</text>
  <text x="110" y="380" text-anchor="middle" font-size="10" fill="#339af0">CT Head studies</text>

  <!-- CT ED → ED Queue -->
  <line x1="385" y1="233" x2="460" y2="233" stroke="#6c757d" stroke-width="1.5"/>
  <line x1="460" y1="233" x2="460" y2="340" stroke="#6c757d" stroke-width="1.5" marker-end="url(#arr)"/>

  <rect x="390" y="340" width="140" height="50" rx="6" fill="#e7f5ff" stroke="#339af0" stroke-width="2"/>
  <text x="460" y="362" text-anchor="middle" font-size="12" font-weight="bold" fill="#339af0">ED Queue</text>
  <text x="460" y="380" text-anchor="middle" font-size="10" fill="#339af0">Emergency studies</text>

  <!-- CT Other → General CT Queue -->
  <line x1="310" y1="268" x2="310" y2="340" stroke="#6c757d" stroke-width="1" stroke-dasharray="4,3" marker-end="url(#arr)"/>

  <rect x="240" y="340" width="140" height="50" rx="6" fill="#f8f9fa" stroke="#dee2e6" stroke-width="1.5"/>
  <text x="310" y="362" text-anchor="middle" font-size="11" fill="#495057">General</text>
  <text x="310" y="378" text-anchor="middle" font-size="11" fill="#495057">CT Queue</text>

  <!-- CT Head routes to BOTH (dashed connector) -->
  <line x1="110" y1="340" x2="110" y2="325" stroke="#339af0" stroke-width="1" stroke-dasharray="4,3"/>
  <line x1="110" y1="325" x2="460" y2="325" stroke="#339af0" stroke-width="1" stroke-dasharray="4,3"/>
  <line x1="460" y1="325" x2="460" y2="340" stroke="#339af0" stroke-width="1" stroke-dasharray="4,3" marker-end="url(#arr)"/>
  <rect x="220" y="314" width="135" height="18" rx="3" fill="#e7f5ff" stroke="#339af0" stroke-width="1"/>
  <text x="287" y="327" text-anchor="middle" font-size="10" font-weight="bold" fill="#339af0">CT Head routes to BOTH</text>

  <!-- ===== MR branch (center-right) ===== -->
  <line x1="475" y1="192" x2="475" y2="210" stroke="#6c757d" stroke-width="1.5"/>
  <line x1="475" y1="210" x2="640" y2="210" stroke="#6c757d" stroke-width="1.5"/>
  <line x1="640" y1="210" x2="640" y2="340" stroke="#6c757d" stroke-width="1.5" marker-end="url(#arr)"/>

  <rect x="570" y="340" width="140" height="50" rx="6" fill="#e7f5ff" stroke="#339af0" stroke-width="2"/>
  <text x="640" y="362" text-anchor="middle" font-size="12" font-weight="bold" fill="#339af0">MR Reading</text>
  <text x="640" y="380" text-anchor="middle" font-size="10" fill="#339af0">Queue</text>

  <!-- ===== Other branch (right) ===== -->
  <line x1="560" y1="157" x2="810" y2="157" stroke="#6c757d" stroke-width="1.5"/>
  <line x1="810" y1="157" x2="810" y2="340" stroke="#6c757d" stroke-width="1.5" marker-end="url(#arr)"/>

  <rect x="740" y="340" width="140" height="50" rx="6" fill="#e7f5ff" stroke="#339af0" stroke-width="2"/>
  <text x="810" y="362" text-anchor="middle" font-size="12" font-weight="bold" fill="#339af0">General Queue</text>
  <text x="810" y="380" text-anchor="middle" font-size="10" fill="#339af0">NM, US, XR, etc.</text>

  <!-- CT Head Note -->
  <rect x="40" y="410" width="140" height="45" rx="4" fill="#fff9db" stroke="#fcc419" stroke-width="1"/>
  <text x="110" y="430" text-anchor="middle" font-size="10" font-weight="bold" fill="#495057">CT Head Note</text>
  <text x="110" y="445" text-anchor="middle" font-size="10" fill="#495057">Routes to Neuro AND ED</text>
</svg>
