<svg xmlns="http://www.w3.org/2000/svg" viewBox="0 0 920 460" width="920" height="460" font-family="system-ui, sans-serif">
  <rect width="920" height="460" fill="#ffffff"/>

  <text x="460" y="28" text-anchor="middle" font-size="18" font-weight="bold" fill="#212529">Modality Worklist Flow</text>

  <!-- Accession Number banner -->
  <rect x="230" y="42" width="400" height="24" rx="4" fill="#fff9db" stroke="#fcc419" stroke-width="1"/>
  <text x="430" y="59" text-anchor="middle" font-size="11" fill="#495057">Accession Number flows through each step as the unique study identifier</text>

  <defs>
    <marker id="arr" markerWidth="8" markerHeight="6" refX="7" refY="3" orient="auto">
      <polygon points="0 0, 8 3, 0 6" fill="#6c757d"/>
    </marker>
  </defs>

  <!-- Step number circles -->
  <circle cx="140" cy="88" r="13" fill="#339af0"/>
  <text x="140" y="93" text-anchor="middle" font-size="11" font-weight="bold" fill="#ffffff">1</text>
  <circle cx="420" cy="88" r="13" fill="#339af0"/>
  <text x="420" y="93" text-anchor="middle" font-size="11" font-weight="bold" fill="#ffffff">2</text>
  <circle cx="700" cy="88" r="13" fill="#339af0"/>
  <text x="700" y="93" text-anchor="middle" font-size="11" font-weight="bold" fill="#ffffff">3</text>
  <circle cx="700" cy="258" r="13" fill="#339af0"/>
  <text x="700" y="263" text-anchor="middle" font-size="11" font-weight="bold" fill="#ffffff">4</text>

  <!-- HIS box -->
  <rect x="50" y="105" width="180" height="75" rx="6" fill="#f8f9fa" stroke="#dee2e6" stroke-width="1.5"/>
  <text x="140" y="132" text-anchor="middle" font-size="14" font-weight="bold" fill="#212529">HIS</text>
  <text x="140" y="150" text-anchor="middle" font-size="12" fill="#495057">Hospital Info System</text>
  <text x="140" y="168" text-anchor="middle" font-size="10" fill="#6c757d">Order placed here</text>

  <!-- Arrow HIS → RIS -->
  <line x1="230" y1="142" x2="330" y2="142" stroke="#6c757d" stroke-width="1.5" marker-end="url(#arr)"/>

  <!-- HL7 ORM label -->
  <rect x="243" y="120" width="74" height="22" rx="4" fill="#e7f5ff" stroke="#339af0" stroke-width="1.5"/>
  <text x="280" y="135" text-anchor="middle" font-size="11" font-weight="bold" fill="#339af0">HL7 ORM</text>
  <text x="280" y="162" text-anchor="middle" font-size="10" fill="#495057">ACC#: 20241234</text>

  <!-- RIS box -->
  <rect x="330" y="105" width="180" height="75" rx="6" fill="#e7f5ff" stroke="#339af0" stroke-width="2"/>
  <text x="420" y="132" text-anchor="middle" font-size="14" font-weight="bold" fill="#339af0">RIS</text>
  <text x="420" y="150" text-anchor="middle" font-size="12" fill="#339af0">Radiology Info System</text>
  <text x="420" y="168" text-anchor="middle" font-size="10" fill="#339af0">Stores MWL entries</text>

  <!-- Arrows RIS ↔ Modality (bidirectional) -->
  <line x1="510" y1="135" x2="610" y2="135" stroke="#6c757d" stroke-width="1.5" marker-end="url(#arr)"/>
  <line x1="610" y1="150" x2="510" y2="150" stroke="#6c757d" stroke-width="1.5" marker-end="url(#arr)"/>

  <!-- DICOM MWL label -->
  <rect x="525" y="115" width="70" height="22" rx="4" fill="#e7f5ff" stroke="#339af0" stroke-width="1.5"/>
  <text x="560" y="130" text-anchor="middle" font-size="10" font-weight="bold" fill="#339af0">DICOM MWL</text>
  <text x="560" y="168" text-anchor="middle" font-size="10" fill="#495057">Query / Response</text>
  <text x="560" y="182" text-anchor="middle" font-size="10" fill="#495057">ACC# returned</text>

  <!-- Modality box -->
  <rect x="610" y="105" width="180" height="75" rx="6" fill="#f8f9fa" stroke="#dee2e6" stroke-width="1.5"/>
  <text x="700" y="132" text-anchor="middle" font-size="14" font-weight="bold" fill="#212529">Modality</text>
  <text x="700" y="150" text-anchor="middle" font-size="12" fill="#495057">CT / MRI / X-ray</text>
  <text x="700" y="168" text-anchor="middle" font-size="10" fill="#6c757d">Selects patient from list</text>

  <!-- Arrow down: Modality → PACS -->
  <line x1="700" y1="180" x2="700" y2="270" stroke="#6c757d" stroke-width="1.5" marker-end="url(#arr)"/>

  <!-- C-STORE label -->
  <rect x="712" y="205" width="80" height="22" rx="4" fill="#e7f5ff" stroke="#339af0" stroke-width="1.5"/>
  <text x="752" y="220" text-anchor="middle" font-size="11" font-weight="bold" fill="#339af0">C-STORE</text>
  <text x="752" y="240" text-anchor="middle" font-size="10" fill="#495057">ACC# embedded</text>
  <text x="752" y="254" text-anchor="middle" font-size="10" fill="#495057">in DICOM header</text>

  <!-- PACS Server box -->
  <rect x="610" y="270" width="180" height="75" rx="6" fill="#e7f5ff" stroke="#339af0" stroke-width="2"/>
  <text x="700" y="300" text-anchor="middle" font-size="14" font-weight="bold" fill="#339af0">PACS Server</text>
  <text x="700" y="318" text-anchor="middle" font-size="12" fill="#339af0">Indexes by ACC#</text>
  <text x="700" y="336" text-anchor="middle" font-size="10" fill="#339af0">Routes to worklist</text>

  <!-- Flow summary -->
  <rect x="50" y="375" width="820" height="68" rx="6" fill="#f8f9fa" stroke="#dee2e6" stroke-width="1"/>
  <text x="460" y="397" text-anchor="middle" font-size="12" font-weight="bold" fill="#212529">Complete Flow Summary</text>
  <text x="460" y="417" text-anchor="middle" font-size="11" fill="#495057">HIS (Order) → HL7 ORM → RIS (Worklist entry created with ACC#) → DICOM MWL Query → Modality selects patient</text>
  <text x="460" y="433" text-anchor="middle" font-size="11" fill="#495057">→ Scan performed → C-STORE with ACC# in header → PACS Server archives &amp; routes to reading queue</text>
</svg>
